SplineFontDB: 3.2
FontName: Untitled1
FullName: Untitled1
FamilyName: Untitled1
Weight: Regular
Copyright: Copyright (c) 2023, neilb
UComments: "2023-2-8: Created with FontForge (http://fontforge.org)"
Version: 001.000
ItalicAngle: 0
UnderlinePosition: -100
UnderlineWidth: 50
Ascent: 800
Descent: 200
InvalidEm: 0
LayerCount: 2
Layer: 0 0 "Back" 1
Layer: 1 0 "Fore" 0
XUID: [1021 267 1545846074 29199]
OS2Version: 0
OS2_WeightWidthSlopeOnly: 0
OS2_UseTypoMetrics: 1
CreationTime: 1675849796
ModificationTime: 1675849796
OS2TypoAscent: 0
OS2TypoAOffset: 1
OS2TypoDescent: 0
OS2TypoDOffset: 1
OS2TypoLinegap: 0
OS2WinAscent: 0
OS2WinAOffset: 1
OS2WinDescent: 0
OS2WinDOffset: 1
HheadAscent: 0
HheadAOffset: 1
HheadDescent: 0
HheadDOffset: 1
OS2Vendor: 'PfEd'
DEI: 91125
Encoding: UnicodeFull
UnicodeInterp: none
NameList: AGL For New Fonts
DisplaySize: -48
AntiAlias: 1
FitToEm: 1
WinInfo: 0 16 14
BeginChars: 1114123 58

StartChar: .notdef
Encoding: 1114112 -1 0
Width: 0
VWidth: 41
Flags: H
LayerCount: 2
Fore
SplineSet
119 978 m 2
 698 978 l 2
 717 978 733 963 733 944 c 2
 733 41 l 2
 733 22 717 6 698 6 c 2
 119 6 l 2
 100 6 85 22 85 41 c 2
 85 944 l 2
 85 963 100 978 119 978 c 2
181 909 m 1
 409 554 l 1
 637 909 l 1
 181 909 l 1
154 828 m 1
 154 157 l 1
 369 492 l 1
 154 828 l 1
664 828 m 1
 448 492 l 1
 664 157 l 1
 664 828 l 1
409 431 m 1
 181 76 l 1
 637 76 l 1
 409 431 l 1
EndSplineSet
EndChar

StartChar: age
Encoding: 58995 58995 1
Width: 1000
VWidth: 1041
Flags: H
LayerCount: 2
Fore
SplineSet
54 541 m 0
 54 563 71 582 95 582 c 0
 114 582 130 569 135 552 c 0
 148 502 173 466 203 441 c 1
 209 480 220 509 236 532 c 0
 262 569 304 582 333 582 c 0
 407 582 469 522 469 444 c 0
 469 366 407 307 333 307 c 0
 317 307 300 309 282 313 c 1
 299 174 408 101 539 82 c 0
 559 79 574 62 574 41 c 0
 574 17 555 0 533 0 c 0
 531 0 529 0 527 0 c 0
 445 12 364 43 301 101 c 0
 240 157 199 240 197 345 c 1
 133 382 79 441 55 530 c 0
 54 533 54 537 54 541 c 0
387 444 m 0
 387 478 362 500 333 500 c 0
 319 500 313 500 303 485 c 0
 295 473 285 447 281 398 c 1
 301 392 319 389 333 389 c 0
 362 389 387 410 387 444 c 0
EndSplineSet
EndChar

StartChar: age_roar
Encoding: 1114113 -1 2
Width: 0
VWidth: 41
Flags: H
LayerCount: 2
Fore
SplineSet
593 500 m 0
 571 500 552 517 552 541 c 0
 552 562 567 579 587 582 c 0
 600 584 613 584 626 584 c 0
 787 584 897 464 897 291 c 0
 897 182 853 99 785 52 c 0
 717 5 630 -9 542 0 c 0
 438 11 345 42 276 100 c 0
 209 157 167 240 165 345 c 1
 101 382 47 441 23 530 c 0
 22 533 22 537 22 541 c 0
 22 563 39 582 63 582 c 0
 82 582 97 569 102 552 c 0
 115 502 140 466 170 441 c 1
 176 480 187 509 203 532 c 0
 229 569 271 582 300 582 c 0
 374 582 436 522 436 444 c 0
 436 366 374 307 300 307 c 0
 284 307 267 309 249 313 c 1
 257 247 286 198 329 162 c 0
 381 118 458 92 551 82 c 0
 624 74 691 87 738 119 c 0
 785 151 815 202 815 291 c 0
 815 380 785 432 743 464 c 0
 701 496 645 507 598 500 c 0
 596 500 595 500 593 500 c 0
354 444 m 0
 354 478 329 500 300 500 c 0
 286 500 280 500 270 485 c 0
 262 473 252 447 248 398 c 1
 268 392 286 389 300 389 c 0
 329 389 354 410 354 444 c 0
EndSplineSet
EndChar

StartChar: ah
Encoding: 58998 58998 3
Width: 1000
VWidth: 1041
Flags: H
LayerCount: 2
Fore
SplineSet
486 582 m 0
 509 582 527 564 527 541 c 0
 527 518 509 500 486 500 c 0
 449 500 414 486 384 452 c 0
 354 418 328 365 318 286 c 0
 306 195 275 124 231 75 c 0
 187 26 128 0 68 0 c 0
 45 0 27 18 27 41 c 0
 27 64 45 82 68 82 c 0
 105 82 140 96 170 130 c 0
 200 164 226 217 236 296 c 0
 248 387 279 458 323 507 c 0
 367 556 426 582 486 582 c 0
EndSplineSet
EndChar

StartChar: ah_roar
Encoding: 1114114 -1 4
Width: 0
VWidth: 41
Flags: H
LayerCount: 2
Fore
SplineSet
531 41 m 0
 531 65 550 82 572 82 c 0
 574 82 576 82 578 82 c 0
 625 75 680 86 722 118 c 0
 764 150 795 202 795 291 c 0
 795 380 766 428 719 460 c 0
 672 492 603 504 528 500 c 0
 463 497 416 479 381 447 c 0
 346 415 321 365 311 286 c 0
 299 195 268 124 224 75 c 0
 180 26 122 0 62 0 c 0
 39 0 20 18 20 41 c 0
 20 64 39 82 62 82 c 0
 99 82 134 96 164 130 c 0
 194 164 220 217 230 296 c 0
 242 387 273 459 325 507 c 0
 384 562 460 583 556 583 c 0
 631 583 706 567 765 527 c 0
 833 481 877 400 877 291 c 0
 877 182 834 100 772 53 c 0
 710 6 634 -9 566 0 c 0
 546 3 531 20 531 41 c 0
EndSplineSet
EndChar

StartChar: axe
Encoding: 58987 58987 5
Width: 1000
VWidth: 1041
Flags: H
LayerCount: 2
Fore
SplineSet
-82 944 m 0
 -82 966 -65 985 -41 985 c 0
 -25 985 -12 975 -5 962 c 2
 277 411 l 1
 372 563 l 2
 379 575 392 582 407 582 c 0
 431 582 448 563 448 541 c 0
 448 533 445 525 441 519 c 2
 321 326 l 1
 457 60 l 2
 460 54 461 48 461 41 c 0
 461 19 444 0 420 0 c 0
 404 0 391 9 384 22 c 2
 270 245 l 1
 130 19 l 2
 123 7 110 0 95 0 c 0
 71 0 54 19 54 41 c 0
 54 49 56 57 60 63 c 2
 227 330 l 1
 -78 925 l 2
 -81 931 -82 937 -82 944 c 0
EndSplineSet
EndChar

StartChar: bob
Encoding: 58961 58961 6
Width: 1000
VWidth: 1041
Flags: H
LayerCount: 2
Fore
SplineSet
412 0 m 0
 399 0 385 2 373 2 c 1
 373 -362 l 2
 373 -385 355 -403 332 -403 c 0
 327 -403 322 -402 318 -400 c 0
 173 -348 82 -231 82 -98 c 0
 82 -35 119 22 178 51 c 0
 210 67 248 76 291 81 c 1
 291 541 l 2
 291 564 309 582 332 582 c 0
 355 582 373 564 373 541 c 2
 373 84 l 1
 387 84 401 83 415 82 c 0
 436 80 453 63 453 41 c 0
 453 18 434 0 412 0 c 0
291 -2 m 1
 259 -6 234 -14 215 -23 c 0
 177 -42 164 -62 164 -98 c 0
 164 -178 208 -251 291 -298 c 1
 291 -2 l 1
EndSplineSet
EndChar

StartChar: church
Encoding: 58974 58974 7
Width: 1000
VWidth: 1041
Flags: H
LayerCount: 2
Fore
SplineSet
437 984 m 0
 461 984 478 965 478 943 c 0
 478 934 476 927 471 920 c 0
 253 612 167 408 167 271 c 0
 167 242 168 190 188 149 c 0
 208 108 239 76 328 76 c 0
 374 76 390 76 446 82 c 0
 447 82 449 82 450 82 c 0
 472 82 491 65 491 41 c 0
 491 20 476 2 455 0 c 0
 398 -6 374 -6 328 -6 c 0
 215 -6 145 50 114 113 c 0
 83 176 85 242 85 271 c 0
 85 362 113 465 173 589 c 1
 112 542 51 513 -13 501 c 0
 -15 501 -17 500 -20 500 c 0
 -42 500 -61 517 -61 541 c 0
 -61 561 -47 578 -28 581 c 0
 93 603 236 739 405 968 c 0
 412 978 422 984 437 984 c 0
EndSplineSet
EndChar

StartChar: deed
Encoding: 58963 58963 8
Width: 1000
VWidth: 1041
Flags: H
LayerCount: 2
Fore
SplineSet
415 82 m 0
 437 82 457 65 457 41 c 0
 457 25 447 11 433 4 c 0
 313 -54 212 -202 195 -366 c 0
 193 -387 176 -403 155 -403 c 0
 132 -403 114 -385 114 -362 c 2
 114 541 l 2
 114 564 132 582 155 582 c 0
 178 582 196 564 196 541 c 2
 196 -112 l 1
 246 -28 316 39 398 78 c 0
 403 81 409 82 415 82 c 0
EndSplineSet
EndChar

StartChar: deed_ado_roar
Encoding: 1114115 -1 9
Width: 0
VWidth: 41
Flags: H
LayerCount: 2
Fore
SplineSet
873 41 m 0
 873 65 892 82 914 82 c 0
 916 82 918 82 920 82 c 0
 967 75 1022 86 1064 118 c 0
 1106 150 1137 202 1137 291 c 0
 1137 380 1108 429 1061 461 c 0
 1015 493 946 506 872 500 c 0
 711 483 576 342 461 162 c 0
 346 -18 254 -233 171 -382 c 0
 164 -395 150 -403 135 -403 c 0
 112 -403 94 -385 94 -362 c 2
 94 541 l 2
 94 564 112 582 135 582 c 0
 158 582 176 564 176 541 c 2
 176 -193 l 1
 238 -69 308 75 392 206 c 0
 512 395 662 561 864 582 c 0
 880 584 898 584 914 584 c 0
 1094 582 1219 478 1219 291 c 0
 1219 182 1177 100 1115 53 c 0
 1053 6 977 -9 909 0 c 0
 889 3 873 20 873 41 c 0
EndSplineSet
EndChar

StartChar: eat
Encoding: 58993 58993 10
Width: 1000
VWidth: 1041
Flags: H
LayerCount: 2
Fore
SplineSet
376 582 m 0
 399 582 417 563 417 541 c 2
 417 41 l 2
 417 18 399 0 376 0 c 0
 353 0 335 18 335 41 c 2
 335 368 l 1
 162 23 l 2
 155 10 141 0 125 0 c 0
 101 0 84 19 84 41 c 0
 84 48 86 53 89 59 c 2
 340 559 l 2
 347 572 360 582 376 582 c 0
EndSplineSet
EndChar

StartChar: ed
Encoding: 58994 58994 11
Width: 1000
VWidth: 1041
Flags: H
LayerCount: 2
Fore
SplineSet
462 41 m 0
 462 17 443 0 421 0 c 0
 419 0 417 0 415 0 c 0
 328 12 233 46 162 130 c 0
 91 214 46 344 46 541 c 0
 46 564 64 582 87 582 c 0
 110 582 128 564 128 541 c 0
 128 356 169 248 224 183 c 0
 279 118 351 93 427 82 c 0
 447 79 462 62 462 41 c 0
EndSplineSet
EndChar

StartChar: ed_roar
Encoding: 1114116 -1 12
Width: 0
VWidth: 41
Flags: H
LayerCount: 2
Fore
SplineSet
482 500 m 0
 460 500 441 517 441 541 c 0
 441 562 456 579 476 582 c 0
 489 584 502 584 515 584 c 0
 676 584 787 464 787 291 c 0
 787 182 743 100 675 53 c 0
 607 6 520 -7 433 0 c 0
 352 7 247 39 162 123 c 0
 77 207 15 341 15 541 c 0
 15 564 33 582 56 582 c 0
 79 582 97 564 97 541 c 0
 97 358 152 249 220 181 c 0
 288 113 374 87 439 82 c 0
 513 76 581 89 628 121 c 0
 675 153 705 202 705 291 c 0
 705 380 674 432 632 464 c 0
 590 496 535 507 488 500 c 0
 486 500 484 500 482 500 c 0
EndSplineSet
EndChar

StartChar: eight
Encoding: 56 56 13
Width: 1000
VWidth: 1041
Flags: H
LayerCount: 2
Fore
SplineSet
269 547 m 1
 192 588 115 650 115 760 c 0
 115 816 133 874 176 917 c 0
 219 960 285 985 372 985 c 0
 459 985 522 960 562 915 c 0
 602 870 614 812 614 756 c 0
 614 648 537 586 461 546 c 1
 562 495 658 417 658 268 c 0
 658 130 548 0 364 0 c 0
 180 0 70 130 70 268 c 0
 70 417 168 496 269 547 c 1
372 903 m 0
 300 903 259 884 234 859 c 0
 209 834 198 800 198 760 c 0
 198 710 217 682 254 653 c 0
 283 631 322 611 365 591 c 1
 408 611 448 630 476 652 c 0
 513 680 532 707 532 756 c 0
 532 801 522 836 501 860 c 0
 480 884 444 903 372 903 c 0
365 501 m 1
 306 475 250 447 212 411 c 0
 175 376 153 335 153 268 c 0
 153 171 216 82 364 82 c 0
 512 82 576 171 576 268 c 0
 576 335 554 376 517 411 c 0
 479 447 423 475 365 501 c 1
EndSplineSet
EndChar

StartChar: emdash
Encoding: 8212 8212 14
Width: 1000
VWidth: 1041
Flags: H
LayerCount: 2
Fore
SplineSet
56 457 m 2
 548 457 l 2
 571 457 589 439 589 416 c 0
 589 393 571 375 548 375 c 2
 56 375 l 2
 33 375 15 393 15 416 c 0
 15 439 33 457 56 457 c 2
EndSplineSet
EndChar

StartChar: exam
Encoding: 58988 58988 15
Width: 1000
VWidth: 1041
Flags: H
LayerCount: 2
Fore
SplineSet
67 541 m 0
 67 563 84 582 108 582 c 0
 124 582 138 573 145 560 c 2
 246 362 l 1
 371 563 l 2
 378 575 391 582 406 582 c 0
 430 582 447 563 447 541 c 0
 447 533 445 525 441 519 c 2
 290 276 l 1
 606 -343 l 2
 609 -349 611 -355 611 -362 c 0
 611 -384 594 -403 570 -403 c 0
 554 -403 540 -393 533 -380 c 2
 239 195 l 1
 129 19 l 2
 122 7 109 0 94 0 c 0
 70 0 53 19 53 41 c 0
 53 49 56 57 60 63 c 2
 195 280 l 1
 72 522 l 2
 69 528 67 534 67 541 c 0
EndSplineSet
EndChar

StartChar: fife
Encoding: 58968 58968 16
Width: 1000
VWidth: 1041
Flags: H
LayerCount: 2
Fore
SplineSet
131 944 m 0
 131 968 149 985 172 985 c 0
 176 985 180 984 183 983 c 0
 352 938 423 785 434 582 c 1
 444 582 454 582 464 582 c 0
 487 582 505 564 505 541 c 0
 505 518 487 500 464 500 c 0
 454 500 445 499 435 499 c 1
 433 373 416 255 379 163 c 0
 348 86 294 0 196 0 c 0
 87 0 31 117 35 228 c 0
 40 350 80 444 156 502 c 0
 208 542 274 565 352 575 c 1
 343 743 297 868 162 904 c 0
 145 909 131 925 131 944 c 0
353 492 m 1
 291 482 242 464 206 437 c 0
 151 395 121 331 117 225 c 0
 115 161 139 82 196 82 c 0
 216 82 233 89 251 107 c 0
 269 125 288 155 303 193 c 0
 333 269 351 377 353 492 c 1
EndSplineSet
EndChar

StartChar: five
Encoding: 53 53 17
Width: 1000
VWidth: 1041
Flags: H
LayerCount: 2
Fore
SplineSet
42 130 m 0
 42 152 60 171 83 171 c 0
 96 171 107 165 115 156 c 0
 152 112 194 82 294 82 c 0
 364 82 422 102 462 139 c 0
 502 176 527 233 527 317 c 0
 527 402 504 457 467 494 c 0
 430 531 378 550 313 550 c 0
 229 550 156 530 120 505 c 0
 113 500 105 497 96 497 c 0
 73 497 55 515 55 538 c 0
 55 540 56 542 56 543 c 2
 99 935 l 2
 101 956 119 972 140 972 c 2
 542 972 l 2
 565 972 583 954 583 931 c 0
 583 908 565 890 542 890 c 2
 176 890 l 1
 145 606 l 1
 185 620 242 632 313 632 c 0
 395 632 470 606 524 552 c 0
 578 498 609 418 609 317 c 0
 609 215 576 133 518 79 c 0
 460 25 380 0 294 0 c 0
 216 0 161 18 122 41 c 0
 83 64 60 94 52 104 c 0
 46 111 42 120 42 130 c 0
EndSplineSet
EndChar

StartChar: four
Encoding: 52 52 18
Width: 1000
VWidth: 1041
Flags: H
LayerCount: 2
Fore
SplineSet
255 985 m 0
 279 985 296 966 296 944 c 0
 296 941 296 937 295 934 c 2
 154 365 l 1
 437 365 l 1
 437 775 l 2
 437 798 455 816 478 816 c 0
 501 816 519 798 519 775 c 2
 519 365 l 1
 615 365 l 2
 638 365 656 347 656 324 c 0
 656 301 638 283 615 283 c 2
 519 283 l 1
 519 41 l 2
 519 18 501 0 478 0 c 0
 455 0 437 18 437 41 c 2
 437 283 l 1
 102 283 l 2
 79 283 61 301 61 324 c 0
 61 327 61 331 62 334 c 2
 215 953 l 2
 219 970 235 985 255 985 c 0
EndSplineSet
EndChar

StartChar: gig
Encoding: 58965 58965 19
Width: 1000
VWidth: 1041
Flags: H
LayerCount: 2
Fore
SplineSet
81 321 m 0
 81 464 157 597 301 597 c 0
 337 597 429 593 429 541 c 0
 429 517 410 500 388 500 c 0
 382 500 376 502 371 504 c 0
 348 514 328 515 301 515 c 0
 204 515 163 421 163 321 c 0
 163 225 168 181 264 85 c 0
 269 80 272 76 277 71 c 1
 302 82 330 90 361 96 c 0
 363 96 366 97 369 97 c 0
 391 97 410 80 410 56 c 0
 410 36 395 20 376 16 c 0
 360 13 346 9 333 5 c 1
 351 -21 365 -44 374 -67 c 0
 392 -112 393 -152 393 -186 c 0
 393 -264 374 -317 343 -349 c 0
 312 -381 273 -388 250 -388 c 0
 227 -388 190 -380 159 -348 c 0
 128 -316 108 -264 108 -186 c 0
 108 -135 122 -74 162 -20 c 0
 174 -3 189 13 206 27 c 1
 100 133 81 218 81 321 c 0
260 -35 m 1
 247 -46 237 -57 228 -69 c 0
 200 -107 190 -151 190 -186 c 0
 190 -251 206 -278 218 -291 c 0
 230 -304 242 -305 250 -305 c 0
 259 -305 272 -304 284 -292 c 0
 296 -280 311 -251 311 -186 c 0
 311 -118 294 -80 260 -35 c 1
EndSplineSet
EndChar

StartChar: haha
Encoding: 58978 58978 20
Width: 1000
VWidth: 1041
Flags: H
LayerCount: 2
Fore
SplineSet
406 985 m 0
 429 985 447 967 447 944 c 0
 447 921 429 903 406 903 c 0
 350 903 286 882 237 837 c 0
 188 792 152 720 152 606 c 2
 152 41 l 2
 152 18 134 0 111 0 c 0
 88 0 70 18 70 41 c 2
 70 606 l 2
 70 738 115 835 181 897 c 0
 247 959 331 985 406 985 c 0
EndSplineSet
EndChar

StartChar: if
Encoding: 58992 58992 21
Width: 1000
VWidth: 1041
Flags: H
LayerCount: 2
Fore
SplineSet
248 582 m 0
 271 582 289 564 289 541 c 2
 289 41 l 2
 289 18 271 0 248 0 c 0
 225 0 207 18 207 41 c 2
 207 541 l 2
 207 564 225 582 248 582 c 0
EndSplineSet
EndChar

StartChar: if_ado
Encoding: 1114117 -1 22
Width: 0
VWidth: 41
Flags: H
LayerCount: 2
Fore
SplineSet
502 582 m 0
 524 582 543 565 543 541 c 0
 543 520 528 503 508 500 c 0
 369 480 195 324 116 30 c 0
 111 13 95 0 76 0 c 0
 53 0 35 18 35 41 c 2
 35 541 l 2
 35 564 53 582 76 582 c 0
 99 582 117 564 117 541 c 2
 117 263 l 1
 215 451 356 562 496 582 c 0
 498 582 500 582 502 582 c 0
EndSplineSet
EndChar

StartChar: if_ado_roar
Encoding: 1114118 -1 23
Width: 0
VWidth: 41
Flags: H
LayerCount: 2
Fore
SplineSet
553 41 m 0
 553 65 572 82 594 82 c 0
 596 82 598 82 600 82 c 0
 647 75 702 86 744 118 c 0
 786 150 817 202 817 291 c 0
 817 380 787 431 740 463 c 0
 693 495 626 508 553 500 c 0
 364 480 195 324 116 30 c 0
 111 13 95 0 76 0 c 0
 53 0 35 18 35 41 c 2
 35 541 l 2
 35 564 53 582 76 582 c 0
 99 582 117 564 117 541 c 2
 117 260 l 1
 218 450 371 564 544 582 c 0
 750 604 899 495 899 291 c 0
 899 182 856 100 794 53 c 0
 732 6 657 -9 589 0 c 0
 569 3 553 20 553 41 c 0
EndSplineSet
EndChar

StartChar: inkling
Encoding: 58980 58980 24
Width: 1000
VWidth: 1041
Flags: H
LayerCount: 2
Fore
SplineSet
201 227 m 1
 132 357 80 531 80 682 c 0
 80 782 98 895 157 949 c 0
 181 971 213 985 249 985 c 0
 325 985 370 927 391 870 c 0
 413 811 419 743 419 682 c 0
 419 531 366 357 297 227 c 1
 347 147 405 92 447 81 c 0
 464 76 477 60 477 41 c 0
 477 17 458 0 436 0 c 0
 432 0 429 0 426 1 c 0
 357 19 299 74 249 147 c 1
 199 74 142 19 73 1 c 0
 70 0 66 0 62 0 c 0
 40 0 21 17 21 41 c 0
 21 60 34 76 51 81 c 0
 93 92 151 147 201 227 c 1
249 903 m 0
 232 903 223 898 213 889 c 0
 173 852 162 758 162 682 c 0
 162 567 196 429 249 315 c 1
 302 429 337 567 337 682 c 0
 337 758 326 852 286 889 c 0
 276 898 266 903 249 903 c 0
EndSplineSet
EndChar

StartChar: kick
Encoding: 58964 58964 25
Width: 1000
VWidth: 1041
Flags: H
LayerCount: 2
Fore
SplineSet
123 944 m 0
 123 968 142 985 164 985 c 0
 171 985 176 983 181 980 c 0
 357 895 412 704 422 454 c 0
 422 453 422 453 422 452 c 0
 422 429 404 411 381 411 c 0
 366 411 352 419 345 431 c 0
 333 451 322 469 309 481 c 0
 296 493 285 500 260 500 c 0
 214 500 199 485 185 454 c 0
 171 423 166 373 166 325 c 0
 166 291 180 224 212 172 c 0
 244 120 290 82 366 82 c 0
 389 82 407 64 407 41 c 0
 407 18 389 0 366 0 c 0
 260 0 185 61 142 129 c 0
 99 197 83 272 83 325 c 0
 83 377 86 436 110 488 c 0
 134 540 187 582 260 582 c 0
 287 582 311 575 331 565 c 1
 312 727 265 849 146 907 c 0
 132 914 123 928 123 944 c 0
EndSplineSet
EndChar

StartChar: loch
Encoding: 58985 58985 26
Width: 1000
VWidth: 1041
Flags: H
LayerCount: 2
Fore
SplineSet
487 0 m 0
 464 0 446 18 446 41 c 0
 446 52 451 63 458 70 c 0
 505 117 529 177 529 297 c 0
 529 401 470 483 372 497 c 1
 372 41 l 2
 372 18 354 0 331 0 c 0
 229 0 153 42 110 102 c 0
 67 162 53 237 53 304 c 0
 53 376 76 445 124 497 c 0
 164 540 221 570 290 579 c 1
 290 944 l 2
 290 967 308 985 331 985 c 0
 354 985 372 967 372 944 c 2
 372 580 l 1
 446 572 504 538 544 491 c 0
 590 436 611 366 611 297 c 0
 611 165 580 76 516 12 c 0
 509 5 498 0 487 0 c 0
290 496 m 1
 194 480 135 408 135 304 c 0
 135 190 181 100 290 85 c 1
 290 496 l 1
EndSplineSet
EndChar

StartChar: loll
Encoding: 58983 58983 27
Width: 1000
VWidth: 1041
Flags: H
LayerCount: 2
Fore
SplineSet
438 582 m 0
 462 582 479 563 479 541 c 0
 479 540 479 538 479 537 c 0
 473 478 454 417 411 365 c 0
 388 337 358 312 320 293 c 1
 349 266 369 226 369 178 c 0
 369 109 326 54 268 27 c 0
 210 0 139 -7 62 0 c 0
 41 2 25 20 25 41 c 0
 25 64 44 82 66 82 c 0
 67 82 69 82 70 82 c 0
 137 76 196 83 233 101 c 0
 270 119 287 138 287 178 c 0
 287 230 249 255 199 255 c 0
 176 255 158 273 158 296 c 0
 158 316 172 333 191 337 c 0
 271 352 318 381 348 417 c 0
 378 453 393 497 398 545 c 0
 400 566 417 582 438 582 c 0
EndSplineSet
EndChar

StartChar: mime
Encoding: 58981 58981 28
Width: 1000
VWidth: 1041
Flags: H
LayerCount: 2
Fore
SplineSet
405 582 m 0
 427 582 446 565 446 541 c 0
 446 523 435 508 419 502 c 0
 273 450 210 315 195 111 c 1
 308 122 393 101 442 36 c 0
 471 -3 484 -54 482 -113 c 0
 478 -224 421 -337 317 -397 c 0
 311 -400 303 -403 296 -403 c 0
 285 -403 274 -398 267 -391 c 0
 192 -316 112 -178 110 13 c 1
 96 10 82 6 70 2 c 0
 66 1 62 0 58 0 c 0
 36 0 17 17 17 41 c 0
 17 59 29 75 46 80 c 0
 67 87 89 93 112 98 c 1
 119 224 144 323 184 399 c 0
 233 491 306 549 391 580 c 0
 395 582 400 582 405 582 c 0
303 27 m 0
 270 34 229 31 192 27 c 0
 192 24 192 21 192 18 c 0
 192 -132 248 -242 303 -308 c 1
 363 -261 397 -184 400 -110 c 0
 402 -64 393 -34 377 -14 c 0
 361 6 338 20 303 27 c 0
EndSplineSet
EndChar

StartChar: mime_roar
Encoding: 1114119 -1 29
Width: 0
VWidth: 41
Flags: H
LayerCount: 2
Fore
SplineSet
-173 0 m 0
 -195 0 -214 17 -214 41 c 0
 -214 59 -203 75 -186 80 c 0
 -165 87 -142 93 -118 98 c 1
 -92 386 77 553 257 582 c 0
 364 599 464 587 539 537 c 0
 613 488 658 400 658 291 c 0
 658 182 615 100 553 53 c 0
 491 6 415 -9 347 0 c 0
 327 3 312 20 312 41 c 0
 312 65 331 82 353 82 c 0
 355 82 357 82 359 82 c 0
 406 75 461 86 503 118 c 0
 545 150 576 202 576 291 c 0
 576 380 545 434 493 468 c 0
 441 502 364 515 270 500 c 0
 135 479 -6 356 -34 111 c 1
 78 122 161 100 210 36 c 0
 239 -3 252 -54 250 -113 c 0
 246 -224 189 -337 85 -397 c 0
 79 -400 71 -403 64 -403 c 0
 53 -403 42 -398 35 -391 c 0
 -40 -316 -119 -178 -121 13 c 1
 -135 10 -149 6 -161 2 c 0
 -165 1 -169 0 -173 0 c 0
71 27 m 0
 38 34 -2 31 -39 27 c 0
 -39 24 -39 21 -39 18 c 0
 -39 -132 16 -242 71 -308 c 1
 131 -261 165 -184 168 -110 c 0
 170 -64 161 -34 145 -14 c 0
 129 6 106 20 71 27 c 0
EndSplineSet
EndChar

StartChar: mime_zoos
Encoding: 1114120 -1 30
Width: 0
VWidth: 41
Flags: H
LayerCount: 2
Fore
SplineSet
-248 0 m 0
 -270 0 -289 17 -289 41 c 0
 -289 59 -277 75 -260 80 c 0
 -239 87 -216 93 -192 98 c 1
 -166 388 3 564 185 582 c 0
 257 589 349 600 422 583 c 0
 462 574 501 555 531 522 c 0
 561 489 578 443 581 386 c 0
 586 285 526 189 471 93 c 0
 416 -3 363 -99 359 -178 c 0
 357 -219 363 -256 375 -278 c 0
 387 -300 397 -309 424 -309 c 0
 440 -309 456 -302 475 -284 c 0
 494 -266 514 -239 533 -203 c 0
 571 -132 603 -34 629 63 c 0
 634 80 650 94 669 94 c 0
 693 94 710 75 710 53 c 0
 710 49 709 45 708 42 c 0
 681 -58 648 -160 605 -241 c 0
 583 -282 560 -317 531 -344 c 0
 502 -371 465 -391 424 -391 c 0
 370 -391 325 -358 303 -316 c 0
 281 -274 274 -225 277 -174 c 0
 283 -64 345 38 400 134 c 0
 455 230 502 320 499 382 c 0
 497 425 486 451 470 468 c 0
 418 525 295 510 193 500 c 0
 62 487 -80 358 -109 111 c 1
 3 122 87 100 136 36 c 0
 165 -3 178 -54 176 -113 c 0
 172 -224 115 -337 11 -397 c 0
 5 -400 -3 -403 -10 -403 c 0
 -21 -403 -32 -398 -39 -391 c 0
 -114 -316 -194 -178 -196 13 c 1
 -210 10 -224 6 -236 2 c 0
 -240 1 -244 0 -248 0 c 0
-3 27 m 0
 -36 34 -77 31 -114 27 c 0
 -114 24 -114 21 -114 18 c 0
 -114 -132 -59 -242 -4 -308 c 1
 56 -261 91 -184 94 -110 c 0
 96 -64 86 -34 70 -14 c 0
 54 6 32 20 -3 27 c 0
EndSplineSet
EndChar

StartChar: nine
Encoding: 57 57 31
Width: 1000
VWidth: 1041
Flags: H
LayerCount: 2
Fore
SplineSet
336 985 m 0
 451 985 548 957 602 875 c 0
 607 868 607 861 609 852 c 1
 609 41 l 2
 609 18 591 0 568 0 c 0
 545 0 527 18 527 41 c 2
 527 513 l 1
 482 455 412 416 320 416 c 0
 176 416 63 537 63 700 c 0
 63 865 184 985 336 985 c 0
336 903 m 0
 225 903 145 827 145 700 c 0
 145 572 219 498 320 498 c 0
 410 498 454 535 485 600 c 0
 515 662 525 750 526 839 c 1
 491 884 432 903 336 903 c 0
EndSplineSet
EndChar

StartChar: nun
Encoding: 58982 58982 32
Width: 1000
VWidth: 1041
Flags: H
LayerCount: 2
Fore
SplineSet
434 582 m 0
 456 582 475 565 475 541 c 0
 475 522 462 506 445 501 c 0
 407 491 360 473 316 447 c 1
 372 390 414 312 414 215 c 0
 414 152 402 100 373 61 c 0
 344 22 298 0 249 0 c 0
 200 0 154 22 125 61 c 0
 96 100 85 152 85 215 c 0
 85 312 126 390 182 447 c 1
 138 473 92 491 54 501 c 0
 37 506 24 522 24 541 c 0
 24 565 42 582 65 582 c 0
 69 582 72 582 75 581 c 0
 126 567 190 542 249 502 c 1
 308 542 372 567 423 581 c 0
 426 582 430 582 434 582 c 0
249 398 m 1
 200 352 167 294 167 215 c 0
 167 163 178 128 192 109 c 0
 206 90 221 82 249 82 c 0
 277 82 293 90 307 109 c 0
 321 128 332 163 332 215 c 0
 332 294 298 352 249 398 c 1
EndSplineSet
EndChar

StartChar: nun_nun_nun
Encoding: 1114121 -1 33
Width: 0
VWidth: 41
Flags: H
LayerCount: 2
Fore
SplineSet
-463 541 m 0
 -463 565 -444 582 -422 582 c 0
 -418 582 -415 582 -412 581 c 0
 -360 567 -297 542 -238 502 c 1
 -161 554 -67 582 23 582 c 0
 113 582 206 554 283 503 c 1
 360 554 453 582 543 582 c 0
 633 582 727 554 804 502 c 1
 863 542 926 567 978 581 c 0
 981 582 984 582 988 582 c 0
 1010 582 1029 565 1029 541 c 0
 1029 522 1016 506 999 501 c 0
 961 491 914 473 870 447 c 1
 929 387 968 307 968 215 c 0
 968 152 956 100 927 61 c 0
 898 22 853 0 804 0 c 0
 755 0 709 22 680 61 c 0
 651 100 639 152 639 215 c 0
 639 312 681 390 737 447 c 1
 678 481 608 500 543 500 c 0
 478 500 409 481 350 447 c 1
 409 387 448 307 448 215 c 0
 448 152 436 100 407 61 c 0
 378 22 332 0 283 0 c 0
 234 0 189 22 160 61 c 0
 131 100 119 152 119 215 c 0
 119 307 158 387 216 447 c 1
 157 481 88 500 23 500 c 0
 -42 500 -112 481 -171 447 c 1
 -115 390 -73 312 -73 215 c 0
 -73 152 -85 100 -114 61 c 0
 -143 22 -189 0 -238 0 c 0
 -287 0 -332 22 -361 61 c 0
 -390 100 -402 152 -402 215 c 0
 -402 307 -363 387 -304 447 c 1
 -348 473 -395 491 -433 501 c 0
 -450 506 -463 522 -463 541 c 0
283 398 m 1
 232 350 201 288 201 215 c 0
 201 163 212 128 226 109 c 0
 240 90 255 82 283 82 c 0
 311 82 327 90 341 109 c 0
 355 128 366 163 366 215 c 0
 366 288 334 350 283 398 c 1
804 398 m 1
 755 352 721 294 721 215 c 0
 721 163 732 128 746 109 c 0
 760 90 776 82 804 82 c 0
 832 82 847 90 861 109 c 0
 875 128 886 163 886 215 c 0
 886 288 855 350 804 398 c 1
-238 398 m 1
 -289 350 -320 288 -320 215 c 0
 -320 163 -309 128 -295 109 c 0
 -281 90 -266 82 -238 82 c 0
 -210 82 -194 90 -180 109 c 0
 -166 128 -155 163 -155 215 c 0
 -155 294 -189 352 -238 398 c 1
EndSplineSet
EndChar

StartChar: oak
Encoding: 59004 59004 34
Width: 1000
VWidth: 1041
Flags: H
LayerCount: 2
Fore
SplineSet
222 582 m 0
 244 582 263 565 263 541 c 0
 263 523 252 508 236 502 c 0
 164 477 123 387 123 291 c 0
 123 243 138 189 167 149 c 0
 196 109 239 82 311 82 c 0
 383 82 425 109 454 149 c 0
 483 189 498 243 498 291 c 0
 498 387 458 477 386 502 c 0
 370 508 358 523 358 541 c 0
 358 565 377 582 399 582 c 0
 404 582 408 581 412 580 c 0
 518 543 580 426 580 291 c 0
 580 228 563 158 520 100 c 0
 477 42 406 0 311 0 c 0
 216 0 144 42 101 100 c 0
 58 158 41 228 41 291 c 0
 41 425 103 543 209 580 c 0
 213 581 217 582 222 582 c 0
EndSplineSet
EndChar

StartChar: oil
Encoding: 59001 59001 35
Width: 1000
VWidth: 1041
Flags: H
LayerCount: 2
Fore
SplineSet
314 596 m 0
 337 596 355 578 355 555 c 0
 355 538 354 522 353 506 c 1
 376 491 399 473 420 451 c 0
 497 371 555 240 555 41 c 0
 555 18 537 0 514 0 c 0
 491 0 473 18 473 41 c 0
 473 225 421 331 361 394 c 0
 354 401 346 408 339 414 c 1
 333 392 325 372 315 355 c 0
 287 306 237 278 183 278 c 0
 106 278 49 344 49 418 c 0
 49 492 106 558 183 558 c 0
 210 558 241 554 273 544 c 1
 273 548 273 551 273 555 c 0
 273 578 291 596 314 596 c 0
183 476 m 0
 153 476 131 451 131 418 c 0
 131 385 153 360 183 360 c 0
 213 360 228 368 244 396 c 0
 252 411 260 432 265 459 c 1
 234 471 205 476 183 476 c 0
EndSplineSet
EndChar

StartChar: one
Encoding: 49 49 36
Width: 1000
VWidth: 1041
Flags: H
LayerCount: 2
Fore
SplineSet
311 972 m 0
 334 972 352 953 352 931 c 2
 352 82 l 1
 503 82 l 2
 526 82 544 64 544 41 c 0
 544 18 526 0 503 0 c 0
 371 0 238 0 106 0 c 0
 83 0 65 18 65 41 c 0
 65 64 83 82 106 82 c 2
 270 82 l 1
 270 843 l 1
 148 742 l 2
 141 736 132 733 122 733 c 0
 100 733 81 751 81 774 c 0
 81 787 87 797 96 805 c 2
 285 962 l 2
 292 968 301 972 311 972 c 0
EndSplineSet
EndChar

StartChar: pipe
Encoding: 58960 58960 37
Width: 1000
VWidth: 1041
Flags: H
LayerCount: 2
Fore
SplineSet
319 898 m 1
 318 897 303 903 291 903 c 0
 277 903 265 897 249 880 c 0
 233 863 217 835 204 800 c 0
 177 730 162 633 162 541 c 0
 162 518 144 500 121 500 c 0
 98 500 80 518 80 541 c 0
 80 691 112 854 189 936 c 0
 215 964 251 985 291 985 c 0
 313 985 336 981 359 968 c 0
 382 955 400 925 400 894 c 2
 400 41 l 2
 400 18 382 0 359 0 c 0
 336 0 318 18 318 41 c 2
 318 894 l 2
 318 896 319 898 319 898 c 1
EndSplineSet
EndChar

StartChar: qsbracketleft
Encoding: 58990 58990 38
Width: 1000
VWidth: 1041
Flags: H
LayerCount: 2
Fore
SplineSet
444 985 m 0
 468 985 485 966 485 944 c 0
 485 940 484 935 483 931 c 2
 93 -321 l 1
 444 -321 l 2
 467 -321 485 -339 485 -362 c 0
 485 -385 467 -403 444 -403 c 2
 37 -403 l 2
 14 -403 -4 -385 -4 -362 c 0
 -4 -358 -3 -353 -2 -349 c 2
 405 956 l 2
 410 972 425 985 444 985 c 0
EndSplineSet
EndChar

StartChar: question
Encoding: 63 63 39
Width: 1000
VWidth: 1041
Flags: H
LayerCount: 2
Fore
SplineSet
140 811 m 0
 116 811 99 830 99 852 c 0
 99 857 100 861 102 865 c 0
 116 903 135 935 165 956 c 0
 195 977 231 985 271 985 c 0
 315 985 360 970 388 933 c 0
 416 896 427 846 427 780 c 0
 427 689 372 616 325 553 c 0
 278 490 239 434 239 388 c 0
 239 357 250 335 273 335 c 0
 282 335 288 336 293 338 c 0
 298 340 303 344 309 360 c 0
 315 375 330 386 347 386 c 0
 371 386 388 367 388 345 c 0
 388 340 387 335 385 330 c 0
 366 282 328 253 273 253 c 0
 203 253 157 315 157 388 c 0
 157 473 212 539 259 602 c 0
 306 665 345 724 345 780 c 0
 345 837 334 869 323 883 c 0
 312 897 300 903 271 903 c 0
 242 903 224 898 212 889 c 0
 200 880 189 866 179 838 c 0
 173 822 158 811 140 811 c 0
EndSplineSet
EndChar

StartChar: roar
Encoding: 58984 58984 40
Width: 1000
VWidth: 1041
Flags: H
LayerCount: 2
Fore
SplineSet
119 500 m 0
 97 500 78 517 78 541 c 0
 78 562 93 579 113 582 c 0
 126 584 139 584 152 584 c 0
 313 584 424 464 424 291 c 0
 424 182 381 100 319 53 c 0
 257 6 181 -9 113 0 c 0
 93 3 78 20 78 41 c 0
 78 65 97 82 119 82 c 0
 121 82 123 82 125 82 c 0
 172 75 227 86 269 118 c 0
 311 150 342 202 342 291 c 0
 342 380 311 432 269 464 c 0
 227 496 172 507 125 500 c 0
 123 500 121 500 119 500 c 0
EndSplineSet
EndChar

StartChar: seven
Encoding: 55 55 41
Width: 1000
VWidth: 1041
Flags: H
LayerCount: 2
Fore
SplineSet
246 0 m 0
 222 0 205 19 205 41 c 0
 205 47 207 52 209 57 c 2
 560 890 l 1
 76 890 l 2
 53 890 35 908 35 931 c 0
 35 954 53 972 76 972 c 2
 621 972 l 2
 644 972 662 954 662 931 c 0
 662 925 661 920 659 915 c 2
 284 25 l 2
 278 10 263 0 246 0 c 0
EndSplineSet
EndChar

StartChar: shush
Encoding: 58972 58972 42
Width: 1000
VWidth: 1041
Flags: H
LayerCount: 2
Fore
SplineSet
426 88 m 0
 448 88 467 71 467 47 c 0
 467 26 451 9 430 7 c 0
 373 1 350 0 304 0 c 0
 191 0 121 57 90 120 c 0
 59 183 61 249 61 278 c 0
 61 448 158 661 380 974 c 0
 387 984 398 991 413 991 c 0
 437 991 454 972 454 950 c 0
 454 941 452 933 447 926 c 0
 229 618 143 414 143 277 c 0
 143 248 144 197 164 156 c 0
 184 115 215 82 304 82 c 0
 350 82 366 82 422 88 c 0
 423 88 425 88 426 88 c 0
EndSplineSet
EndChar

StartChar: sis
Encoding: 58970 58970 43
Width: 1000
VWidth: 1041
Flags: H
LayerCount: 2
Fore
SplineSet
130 737 m 0
 130 877 205 985 329 985 c 0
 352 985 370 967 370 944 c 0
 370 921 352 903 329 903 c 0
 303 903 275 893 253 869 c 0
 231 845 212 805 212 737 c 0
 212 675 245 619 284 551 c 0
 323 483 367 405 367 303 c 0
 367 209 355 137 322 83 c 0
 289 29 230 0 165 0 c 0
 142 0 124 18 124 41 c 0
 124 64 142 82 165 82 c 0
 210 82 232 94 252 126 c 0
 272 158 285 217 285 303 c 0
 285 470 130 567 130 737 c 0
EndSplineSet
EndChar

StartChar: six
Encoding: 54 54 44
Width: 1000
VWidth: 1041
Flags: H
LayerCount: 2
Fore
SplineSet
655 291 m 0
 655 128 545 0 376 0 c 0
 265 0 181 61 134 152 c 0
 87 243 70 361 70 492 c 0
 70 624 91 744 143 834 c 0
 195 924 282 985 394 985 c 0
 445 985 517 976 586 928 c 0
 597 921 603 908 603 894 c 0
 603 870 584 853 562 853 c 0
 553 853 546 856 539 861 c 0
 488 897 437 903 394 903 c 0
 310 903 256 864 215 793 c 0
 175 723 153 620 152 501 c 1
 234 565 319 582 380 582 c 0
 452 582 521 560 573 511 c 0
 625 462 655 387 655 291 c 0
376 82 m 0
 502 82 573 171 573 291 c 0
 573 370 550 420 516 452 c 0
 482 484 435 500 380 500 c 0
 322 500 239 484 157 394 c 1
 164 312 180 242 207 190 c 0
 244 119 293 82 376 82 c 0
EndSplineSet
EndChar

StartChar: thoth
Encoding: 58966 58966 45
Width: 1000
VWidth: 1041
Flags: H
LayerCount: 2
Fore
SplineSet
94 944 m 0
 94 968 112 985 135 985 c 0
 139 985 142 984 145 983 c 0
 328 934 411 721 411 492 c 0
 411 263 327 50 145 1 c 0
 142 0 139 0 135 0 c 0
 113 0 94 17 94 41 c 0
 94 60 107 76 124 81 c 0
 267 119 329 304 329 492 c 0
 329 680 267 866 124 904 c 0
 107 909 94 925 94 944 c 0
EndSplineSet
EndChar

StartChar: three
Encoding: 51 51 46
Width: 1000
VWidth: 1041
Flags: H
LayerCount: 2
Fore
SplineSet
143 819 m 0
 120 819 102 838 102 860 c 0
 102 870 105 879 111 886 c 0
 169 956 258 985 343 985 c 0
 405 985 472 975 526 939 c 0
 580 903 618 838 618 751 c 0
 618 653 576 580 504 541 c 1
 523 531 540 519 555 505 c 0
 612 452 631 375 631 289 c 0
 631 116 505 0 337 0 c 0
 200 0 128 71 102 94 c 0
 94 102 89 113 89 125 c 0
 89 148 108 166 130 166 c 0
 141 166 150 162 157 155 c 0
 189 126 226 82 337 82 c 0
 463 82 549 159 549 289 c 0
 549 363 533 412 498 445 c 0
 463 478 401 500 292 500 c 0
 270 500 252 519 252 541 c 0
 252 563 270 582 292 582 c 0
 380 582 443 597 480 623 c 0
 517 649 536 684 536 751 c 0
 536 817 515 848 481 870 c 0
 447 892 396 903 343 903 c 0
 276 903 213 881 174 834 c 0
 166 825 156 819 143 819 c 0
EndSplineSet
EndChar

StartChar: tut
Encoding: 58962 58962 47
Width: 1000
VWidth: 1041
Flags: H
LayerCount: 2
Fore
SplineSet
253 985 m 0
 276 985 294 967 294 944 c 2
 294 41 l 2
 294 18 276 0 253 0 c 0
 230 0 211 18 211 41 c 2
 211 944 l 2
 211 967 230 985 253 985 c 0
EndSplineSet
EndChar

StartChar: two
Encoding: 50 50 48
Width: 1000
VWidth: 1041
Flags: H
LayerCount: 2
Fore
SplineSet
104 787 m 0
 81 787 63 806 63 828 c 0
 63 838 67 848 73 855 c 0
 138 929 206 972 327 972 c 0
 403 972 471 950 519 901 c 0
 567 852 592 779 592 687 c 0
 592 544 506 413 407 299 c 0
 336 218 257 144 191 82 c 1
 575 82 l 2
 598 82 616 64 616 41 c 0
 616 18 598 0 575 0 c 2
 90 0 l 2
 67 0 49 18 49 41 c 0
 49 52 53 63 60 70 c 0
 136 148 251 245 345 353 c 0
 439 461 510 577 510 687 c 0
 510 765 491 814 461 844 c 0
 431 874 388 890 327 890 c 0
 222 890 194 868 135 801 c 0
 127 792 116 787 104 787 c 0
EndSplineSet
EndChar

StartChar: valve
Encoding: 58969 58969 49
Width: 1000
VWidth: 1041
Flags: H
LayerCount: 2
Fore
SplineSet
504 82 m 0
 528 82 545 63 545 41 c 0
 545 37 544 33 543 30 c 0
 515 -74 485 -176 445 -256 c 0
 425 -296 402 -330 374 -357 c 0
 346 -384 311 -403 271 -403 c 0
 176 -403 133 -313 114 -232 c 0
 98 -165 92 -84 91 1 c 1
 81 1 72 0 62 0 c 0
 39 0 21 18 21 41 c 0
 21 64 39 82 62 82 c 0
 72 82 82 83 91 83 c 1
 93 209 110 326 147 419 c 0
 178 496 232 582 330 582 c 0
 432 582 495 481 491 380 c 0
 486 258 447 159 372 94 c 0
 320 49 253 21 173 8 c 1
 174 -76 180 -154 194 -213 c 0
 203 -252 217 -281 230 -298 c 0
 243 -315 253 -321 271 -321 c 0
 286 -321 301 -315 318 -298 c 0
 335 -281 354 -254 371 -219 c 0
 406 -149 437 -50 464 52 c 0
 469 69 485 82 504 82 c 0
330 500 m 0
 310 500 293 493 275 475 c 0
 257 457 239 427 224 389 c 0
 194 314 175 206 173 92 c 1
 234 104 282 126 318 157 c 0
 374 205 405 277 409 383 c 0
 411 437 382 500 330 500 c 0
EndSplineSet
EndChar

StartChar: whitewheat
Encoding: 58979 58979 50
Width: 1000
VWidth: 1041
Flags: H
LayerCount: 2
Fore
SplineSet
532 582 m 0
 556 582 573 563 573 541 c 0
 573 534 572 528 569 523 c 2
 120 -380 l 2
 113 -393 99 -403 83 -403 c 0
 60 -403 42 -385 42 -362 c 0
 42 -360 43 -358 43 -356 c 0
 51 -299 37 -215 6 -143 c 0
 -25 -71 -72 -14 -111 3 c 0
 -126 9 -136 24 -136 41 c 0
 -136 65 -117 82 -95 82 c 0
 -89 82 -84 81 -79 79 c 0
 19 36 85 -87 114 -208 c 1
 495 559 l 2
 502 573 516 582 532 582 c 0
EndSplineSet
EndChar

StartChar: winwin
Encoding: 58977 58977 51
Width: 1000
VWidth: 1041
Flags: H
LayerCount: 2
Fore
SplineSet
411 582 m 0
 435 582 452 563 452 541 c 0
 452 534 450 528 447 523 c 2
 -1 -380 l 2
 -8 -394 -22 -403 -38 -403 c 0
 -62 -403 -79 -384 -79 -362 c 0
 -79 -355 -78 -348 -75 -343 c 2
 374 559 l 2
 381 573 395 582 411 582 c 0
EndSplineSet
EndChar

StartChar: wool
Encoding: 59005 59005 52
Width: 1000
VWidth: 1041
Flags: H
LayerCount: 2
Fore
SplineSet
121 582 m 0
 144 582 163 564 163 541 c 0
 163 399 212 201 294 120 c 0
 320 94 345 82 374 82 c 0
 403 82 427 94 453 120 c 0
 535 201 585 399 585 541 c 0
 585 564 603 582 626 582 c 0
 649 582 667 564 667 541 c 0
 667 373 609 159 511 62 c 0
 474 25 428 0 374 0 c 0
 320 0 273 25 236 62 c 0
 138 159 80 373 80 541 c 0
 80 564 98 582 121 582 c 0
EndSplineSet
EndChar

StartChar: yoyo
Encoding: 58976 58976 53
Width: 1000
VWidth: 1041
Flags: H
LayerCount: 2
Fore
SplineSet
262 985 m 0
 299 985 338 968 363 934 c 0
 388 900 399 855 399 797 c 0
 399 716 371 640 319 586 c 0
 289 555 251 531 207 516 c 1
 207 41 l 2
 207 18 189 0 166 0 c 0
 143 0 125 18 125 41 c 2
 125 501 l 1
 118 501 111 500 104 500 c 0
 81 500 63 518 63 541 c 0
 63 564 81 582 104 582 c 0
 111 582 118 582 125 583 c 1
 125 746 l 2
 125 821 135 877 157 918 c 0
 179 959 221 985 262 985 c 0
207 604 m 1
 273 636 317 706 317 797 c 0
 317 844 307 871 297 885 c 0
 287 899 278 903 262 903 c 0
 248 903 241 901 229 879 c 0
 217 857 207 813 207 746 c 2
 207 604 l 1
EndSplineSet
EndChar

StartChar: yoyo_ooze
Encoding: 1114122 -1 54
Width: 0
VWidth: 41
Flags: H
LayerCount: 2
Fore
SplineSet
351 816 m 0
 351 707 248 575 159 527 c 1
 159 301 l 1
 191 381 232 463 283 518 c 0
 317 554 359 582 409 582 c 0
 500 582 573 510 623 412 c 0
 673 314 702 184 702 41 c 0
 702 18 684 0 661 0 c 0
 638 0 620 18 620 41 c 0
 620 172 591 292 549 375 c 0
 507 458 455 500 409 500 c 0
 390 500 368 489 343 462 c 0
 318 435 291 394 268 346 c 0
 221 250 184 126 158 30 c 0
 153 13 137 0 118 0 c 0
 95 0 77 18 77 41 c 2
 77 501 l 1
 70 500 63 500 56 500 c 0
 33 500 15 518 15 541 c 0
 15 564 33 582 56 582 c 0
 63 582 70 583 77 584 c 1
 77 746 l 2
 77 821 87 877 109 918 c 0
 131 959 173 985 214 985 c 0
 301 985 351 908 351 816 c 0
214 903 m 0
 200 903 193 901 181 879 c 0
 169 857 159 813 159 746 c 2
 159 628 l 1
 174 640 188 654 201 670 c 0
 243 722 269 789 269 816 c 0
 269 851 260 874 250 886 c 0
 240 898 230 903 214 903 c 0
EndSplineSet
EndChar

StartChar: zero
Encoding: 48 48 55
Width: 1000
VWidth: 1041
Flags: H
LayerCount: 2
Fore
SplineSet
341 985 m 0
 435 985 512 927 558 839 c 0
 604 751 626 633 626 492 c 0
 626 351 604 233 558 145 c 0
 512 57 435 0 341 0 c 0
 247 0 171 57 125 145 c 0
 79 233 57 351 57 492 c 0
 57 633 79 751 125 839 c 0
 171 927 247 985 341 985 c 0
341 903 m 0
 279 903 234 871 197 801 c 0
 160 731 139 624 139 492 c 0
 139 360 160 253 197 183 c 0
 234 113 279 82 341 82 c 0
 403 82 448 113 485 183 c 0
 522 253 544 360 544 492 c 0
 544 624 522 731 485 801 c 0
 448 871 403 903 341 903 c 0
EndSplineSet
EndChar

StartChar: zhivago
Encoding: 58973 58973 56
Width: 1000
VWidth: 1041
Flags: H
LayerCount: 2
Fore
SplineSet
108 494 m 0
 86 494 67 511 67 535 c 0
 67 556 83 573 104 575 c 0
 161 581 184 582 230 582 c 0
 343 582 413 525 444 462 c 0
 475 399 473 334 473 305 c 0
 473 236 454 156 424 75 c 1
 429 75 434 76 439 76 c 0
 462 76 480 58 480 35 c 0
 480 12 462 -6 439 -6 c 0
 423 -6 406 -7 390 -8 c 1
 342 -116 271 -242 209 -321 c 0
 190 -345 172 -364 155 -379 c 0
 138 -394 122 -409 92 -409 c 0
 70 -409 50 -405 35 -396 c 0
 20 -387 13 -377 7 -372 c 0
 -14 -352 -12 -338 -14 -321 c 0
 -16 -304 -17 -286 -15 -266 c 0
 -12 -225 -1 -177 23 -135 c 0
 97 -6 215 48 332 67 c 1
 368 156 391 244 391 305 c 0
 391 334 390 386 370 427 c 0
 350 468 319 500 230 500 c 0
 184 500 168 500 112 494 c 0
 111 494 109 494 108 494 c 0
292 -24 m 1
 195 -51 78 -132 67 -272 c 0
 65 -291 64 -310 70 -319 c 0
 72 -321 77 -326 77 -326 c 1
 77 -326 78 -327 87 -327 c 1
 86 -327 93 -325 101 -318 c 0
 112 -308 127 -291 144 -270 c 0
 190 -212 252 -109 292 -24 c 1
EndSplineSet
EndChar

StartChar: zoos
Encoding: 58971 58971 57
Width: 1000
VWidth: 1041
Flags: H
LayerCount: 2
Fore
SplineSet
70 488 m 0
 48 488 29 505 29 529 c 0
 29 548 42 565 60 569 c 0
 89 576 121 582 177 582 c 0
 223 582 271 571 310 536 c 0
 349 501 372 446 372 373 c 0
 372 274 314 178 260 82 c 0
 206 -14 154 -110 150 -190 c 0
 148 -231 154 -268 166 -290 c 0
 178 -312 188 -321 215 -321 c 0
 231 -321 247 -314 266 -296 c 0
 285 -278 305 -251 324 -215 c 0
 362 -144 394 -45 420 52 c 0
 425 69 441 82 460 82 c 0
 484 82 501 63 501 41 c 0
 501 37 500 33 499 30 c 0
 472 -70 439 -172 396 -253 c 0
 374 -294 351 -329 322 -356 c 0
 293 -383 256 -403 215 -403 c 0
 161 -403 116 -370 94 -328 c 0
 72 -286 65 -236 68 -185 c 0
 74 -76 134 26 188 122 c 0
 242 218 290 309 290 373 c 0
 290 429 274 458 255 475 c 0
 236 492 209 500 177 500 c 0
 126 500 106 496 79 489 c 0
 76 488 73 488 70 488 c 0
EndSplineSet
EndChar
